<?xml version="1.0" encoding="utf-8"?>
<!-- Generator: Adobe Illustrator 16.0.0, SVG Export Plug-In . SVG Version: 6.00 Build 0)  -->
<!DOCTYPE svg PUBLIC "-//W3C//DTD SVG 1.1//EN" "http://www.w3.org/Graphics/SVG/1.1/DTD/svg11.dtd">
<svg version="1.1" id="Layer_1" xmlns="http://www.w3.org/2000/svg" xmlns:xlink="http://www.w3.org/1999/xlink" x="0px" y="0px"
	 width="588px" height="576.209px" viewBox="217.5 98.291 588 576.209" enable-background="new 217.5 98.291 588 576.209"
	 xml:space="preserve">
<path fill="#FF00E1" d="M778.631,335.709l-48.918-10.463c-5.112-18.985-12.65-36.962-22.241-53.612l27.218-42.025
	c2.752-4.909,1.751-12.178-2.225-16.153l-49.914-49.914c-3.975-3.976-11.249-4.983-16.152-2.225l-42.024,27.218
	c-16.65-9.597-34.628-17.129-53.612-22.241l-10.47-48.925c-1.523-5.419-7.373-9.849-13.001-9.849h-70.582
	c-5.628,0-11.478,4.43-13.001,9.849l-10.463,48.918c-18.985,5.112-36.963,12.65-53.612,22.241l-42.025-27.218
	c-4.909-2.759-12.177-1.757-16.152,2.224l-49.914,49.914c-3.975,3.976-4.983,11.25-2.224,16.159l27.218,42.025
	c-9.597,16.65-17.129,34.627-22.241,53.612l-48.925,10.463c-5.419,1.523-9.849,7.367-9.849,12.995v70.588
	c0,5.628,4.43,11.477,9.849,13.001l48.918,10.463c5.112,18.979,12.651,36.956,22.242,53.606l-27.218,42.025
	c-2.752,4.902-1.751,12.177,2.224,16.152l49.914,49.914c3.975,3.975,11.25,4.982,16.152,2.224l42.025-27.218
	c16.65,9.597,34.628,17.13,53.612,22.247l10.464,48.919c1.529,5.419,7.379,9.854,13.007,9.854h70.582
	c5.628,0,11.478-4.43,13.001-9.849l10.463-48.918c18.979-5.118,36.956-12.651,53.612-22.248l42.025,27.218
	c4.902,2.759,12.178,1.751,16.152-2.224l49.914-49.914c3.976-3.981,4.982-11.25,2.225-16.152l-27.219-42.025
	c9.598-16.65,17.13-34.627,22.241-53.606l48.919-10.463c5.425-1.53,9.855-7.379,9.855-13.007v-70.588
	C788.48,343.076,784.05,337.232,778.631,335.709z M512,512.251c-70.828,0-128.25-57.422-128.25-128.25s57.422-128.25,128.25-128.25
	s128.25,57.422,128.25,128.25S582.828,512.251,512,512.251z"/>
</svg>
